<svg id="visual" viewBox="0 0 960 300" width="960" height="300" xmlns="http://www.w3.org/2000/svg" xmlns:xlink="http://www.w3.org/1999/xlink" version="1.1"><rect x="0" y="0" width="960" height="300" fill="#F5FBFF"></rect><path d="M0 199L22.8 200.3C45.7 201.7 91.3 204.3 137 205.5C182.7 206.7 228.3 206.3 274 205.2C319.7 204 365.3 202 411.2 202.8C457 203.7 503 207.3 548.8 209.7C594.7 212 640.3 213 686 214C731.7 215 777.3 216 823 215.7C868.7 215.3 914.3 213.7 937.2 212.8L960 212L960 301L937.2 301C914.3 301 868.7 301 823 301C777.3 301 731.7 301 686 301C640.3 301 594.7 301 548.8 301C503 301 457 301 411.2 301C365.3 301 319.7 301 274 301C228.3 301 182.7 301 137 301C91.3 301 45.7 301 22.8 301L0 301Z" fill="#e5f3fd"></path><path d="M0 220L22.8 221C45.7 222 91.3 224 137 224.8C182.7 225.7 228.3 225.3 274 224.2C319.7 223 365.3 221 411.2 221.7C457 222.3 503 225.7 548.8 229C594.7 232.3 640.3 235.7 686 238C731.7 240.3 777.3 241.7 823 242.2C868.7 242.7 914.3 242.3 937.2 242.2L960 242L960 301L937.2 301C914.3 301 868.7 301 823 301C777.3 301 731.7 301 686 301C640.3 301 594.7 301 548.8 301C503 301 457 301 411.2 301C365.3 301 319.7 301 274 301C228.3 301 182.7 301 137 301C91.3 301 45.7 301 22.8 301L0 301Z" fill="#d6e8f6"></path><path d="M0 232L22.8 235.7C45.7 239.3 91.3 246.7 137 251C182.7 255.3 228.3 256.7 274 255.5C319.7 254.3 365.3 250.7 411.2 249C457 247.3 503 247.7 548.8 245.3C594.7 243 640.3 238 686 235C731.7 232 777.3 231 823 234.3C868.7 237.7 914.3 245.3 937.2 249.2L960 253L960 301L937.2 301C914.3 301 868.7 301 823 301C777.3 301 731.7 301 686 301C640.3 301 594.7 301 548.8 301C503 301 457 301 411.2 301C365.3 301 319.7 301 274 301C228.3 301 182.7 301 137 301C91.3 301 45.7 301 22.8 301L0 301Z" fill="#c6ddef"></path><path d="M0 254L22.8 253.8C45.7 253.7 91.3 253.3 137 255.5C182.7 257.7 228.3 262.3 274 261.2C319.7 260 365.3 253 411.2 249.7C457 246.3 503 246.7 548.8 246.8C594.7 247 640.3 247 686 250.3C731.7 253.7 777.3 260.3 823 262.3C868.7 264.3 914.3 261.7 937.2 260.3L960 259L960 301L937.2 301C914.3 301 868.7 301 823 301C777.3 301 731.7 301 686 301C640.3 301 594.7 301 548.8 301C503 301 457 301 411.2 301C365.3 301 319.7 301 274 301C228.3 301 182.7 301 137 301C91.3 301 45.7 301 22.8 301L0 301Z" fill="#b7d3e9"></path><path d="M0 277L22.8 274.8C45.7 272.7 91.3 268.3 137 265.5C182.7 262.7 228.3 261.3 274 261.3C319.7 261.3 365.3 262.7 411.2 264.3C457 266 503 268 548.8 269C594.7 270 640.3 270 686 271.2C731.7 272.3 777.3 274.7 823 275.5C868.7 276.3 914.3 275.7 937.2 275.3L960 275L960 301L937.2 301C914.3 301 868.7 301 823 301C777.3 301 731.7 301 686 301C640.3 301 594.7 301 548.8 301C503 301 457 301 411.2 301C365.3 301 319.7 301 274 301C228.3 301 182.7 301 137 301C91.3 301 45.7 301 22.8 301L0 301Z" fill="#a9c8e2"></path><path d="M0 276L22.8 277.7C45.7 279.3 91.3 282.7 137 282.3C182.7 282 228.3 278 274 277.8C319.7 277.7 365.3 281.3 411.2 283C457 284.7 503 284.3 548.8 285.2C594.7 286 640.3 288 686 288.7C731.7 289.3 777.3 288.7 823 287C868.7 285.3 914.3 282.7 937.2 281.3L960 280L960 301L937.2 301C914.3 301 868.7 301 823 301C777.3 301 731.7 301 686 301C640.3 301 594.7 301 548.8 301C503 301 457 301 411.2 301C365.3 301 319.7 301 274 301C228.3 301 182.7 301 137 301C91.3 301 45.7 301 22.8 301L0 301Z" fill="#9abddc"></path></svg>