<svg id="visual" viewBox="0 0 960 300" width="960" height="300" xmlns="http://www.w3.org/2000/svg" xmlns:xlink="http://www.w3.org/1999/xlink" version="1.1"><path d="M0 204L17.8 207.8C35.7 211.7 71.3 219.3 106.8 220.8C142.3 222.3 177.7 217.7 213.2 221.2C248.7 224.7 284.3 236.3 320 237.5C355.7 238.7 391.3 229.3 426.8 224.8C462.3 220.3 497.7 220.7 533.2 223.5C568.7 226.3 604.3 231.7 640 229C675.7 226.3 711.3 215.7 746.8 214C782.3 212.3 817.7 219.7 853.2 221.2C888.7 222.7 924.3 218.3 942.2 216.2L960 214L960 301L942.2 301C924.3 301 888.7 301 853.2 301C817.7 301 782.3 301 746.8 301C711.3 301 675.7 301 640 301C604.3 301 568.7 301 533.2 301C497.7 301 462.3 301 426.8 301C391.3 301 355.7 301 320 301C284.3 301 248.7 301 213.2 301C177.7 301 142.3 301 106.8 301C71.3 301 35.7 301 17.8 301L0 301Z" fill="#55c595"></path><path d="M0 249L17.8 246.5C35.7 244 71.3 239 106.8 238.2C142.3 237.3 177.7 240.7 213.2 238C248.7 235.3 284.3 226.7 320 222.7C355.7 218.7 391.3 219.3 426.8 226C462.3 232.7 497.7 245.3 533.2 252.7C568.7 260 604.3 262 640 261C675.7 260 711.3 256 746.8 248.8C782.3 241.7 817.7 231.3 853.2 225.3C888.7 219.3 924.3 217.7 942.2 216.8L960 216L960 301L942.2 301C924.3 301 888.7 301 853.2 301C817.7 301 782.3 301 746.8 301C711.3 301 675.7 301 640 301C604.3 301 568.7 301 533.2 301C497.7 301 462.3 301 426.8 301C391.3 301 355.7 301 320 301C284.3 301 248.7 301 213.2 301C177.7 301 142.3 301 106.8 301C71.3 301 35.7 301 17.8 301L0 301Z" fill="#3fb99c"></path><path d="M0 264L17.8 263.2C35.7 262.3 71.3 260.7 106.8 262.7C142.3 264.7 177.7 270.3 213.2 271.3C248.7 272.3 284.3 268.7 320 263C355.7 257.3 391.3 249.7 426.8 245C462.3 240.3 497.7 238.7 533.2 242.2C568.7 245.7 604.3 254.3 640 254.3C675.7 254.3 711.3 245.7 746.8 243.8C782.3 242 817.7 247 853.2 248C888.7 249 924.3 246 942.2 244.5L960 243L960 301L942.2 301C924.3 301 888.7 301 853.2 301C817.7 301 782.3 301 746.8 301C711.3 301 675.7 301 640 301C604.3 301 568.7 301 533.2 301C497.7 301 462.3 301 426.8 301C391.3 301 355.7 301 320 301C284.3 301 248.7 301 213.2 301C177.7 301 142.3 301 106.8 301C71.3 301 35.7 301 17.8 301L0 301Z" fill="#34ab9f"></path><path d="M0 283L17.8 282.7C35.7 282.3 71.3 281.7 106.8 278C142.3 274.3 177.7 267.7 213.2 267C248.7 266.3 284.3 271.7 320 276.5C355.7 281.3 391.3 285.7 426.8 284C462.3 282.3 497.7 274.7 533.2 272.2C568.7 269.7 604.3 272.3 640 275.3C675.7 278.3 711.3 281.7 746.8 281.7C782.3 281.7 817.7 278.3 853.2 277C888.7 275.7 924.3 276.3 942.2 276.7L960 277L960 301L942.2 301C924.3 301 888.7 301 853.2 301C817.7 301 782.3 301 746.8 301C711.3 301 675.7 301 640 301C604.3 301 568.7 301 533.2 301C497.7 301 462.3 301 426.8 301C391.3 301 355.7 301 320 301C284.3 301 248.7 301 213.2 301C177.7 301 142.3 301 106.8 301C71.3 301 35.7 301 17.8 301L0 301Z" fill="#359d9e"></path></svg>